<svg xmlns="http://www.w3.org/2000/svg" width="256" height="256" viewBox="0 0 256 256">
<defs>
<linearGradient id="g" x1="0%" y1="0%" x2="100%" y2="100%">
<stop offset="0%" stop-color="#2563EB"/>
<stop offset="100%" stop-color="#06B6D4"/>
</linearGradient>
</defs>

<path d="M86 154
C62 154, 44 136, 44 112
C44 88, 62 70, 86 70
H128
C152 70, 170 88, 170 112
C170 136, 152 154, 128 154"
fill="none"
stroke="url(#g)"
stroke-width="20"
stroke-linecap="round"
stroke-linejoin="round"/>

<path d="M128 170
C104 170, 86 152, 86 128
C86 104, 104 86, 128 86
H170
C194 86, 212 104, 212 128
C212 152, 194 170, 170 170"
fill="none"
stroke="url(#g)"
stroke-width="20"
stroke-linecap="round"
stroke-linejoin="round"/>

<path d="M70 198 H150"
fill="none"
stroke="#0F172A"
stroke-width="16"
stroke-linecap="round"/>

<path d="M142 182 L174 198 L142 214"
fill="none"
stroke="#0F172A"
stroke-width="16"
stroke-linecap="round"
stroke-linejoin="round"/>
</svg>
